<?xml version="1.0" encoding="utf-8"?>
<!-- Generator: Adobe Illustrator 24.1.0, SVG Export Plug-In . SVG Version: 6.00 Build 0)  -->
<svg version="1.1" id="Capa_1" xmlns="http://www.w3.org/2000/svg" xmlns:xlink="http://www.w3.org/1999/xlink" x="0px" y="0px"
	 viewBox="0 0 24 24" style="enable-background:new 0 0 24 24;" xml:space="preserve">
<style type="text/css">
	.st0{fill:#A0A0A0;}
</style>
<g id="grid_system">
</g>
<g id="_icons">
	<path class="st0" d="M13.6,7l-0.9-1.8C12,3.8,10.7,3,9.1,3H7C4.8,3,3,4.8,3,7v1v9c0,2.2,1.8,4,4,4h10c2.2,0,4-1.8,4-4v-6
		c0-2.2-1.8-4-4-4H13.6z M7,5h2.1c0.8,0,1.4,0.4,1.8,1.1L11.4,7H5C5,5.9,5.9,5,7,5z M19,11v6c0,1.1-0.9,2-2,2H7c-1.1,0-2-0.9-2-2V9
		h8h4C18.1,9,19,9.9,19,11z"/>
</g>
</svg>
